<svg xmlns="http://www.w3.org/2000/svg" xmlns:xlink="http://www.w3.org/1999/xlink" version="1.1" width="256" height="256" viewBox="0 0 256 256" xml:space="preserve">
<g style="stroke: none; stroke-width: 0; stroke-dasharray: none; stroke-linecap: butt; stroke-linejoin: miter; stroke-miterlimit: 10; fill: none; fill-rule: nonzero; opacity: 1;" transform="translate(1.4065934065934016 1.4065934065934016) scale(2.81 2.81)">
	<path d="M 61.776 0 H 28.224 c -4.189 0 -7.598 3.409 -7.598 7.598 v 74.803 c 0 4.189 3.409 7.599 7.598 7.599 h 33.553 c 4.189 0 7.599 -3.409 7.599 -7.599 V 7.598 C 69.375 3.409 65.966 0 61.776 0 z M 64.375 82.401 c 0 1.433 -1.166 2.599 -2.599 2.599 H 28.224 c -1.433 0 -2.598 -1.166 -2.598 -2.599 V 7.598 C 25.625 6.166 26.791 5 28.224 5 h 3.839 c 0.201 2.629 1.973 4.711 4.136 4.711 h 17.603 c 2.163 0 3.935 -2.082 4.136 -4.711 h 3.839 c 1.433 0 2.599 1.166 2.599 2.598 V 82.401 z" style="stroke: none; stroke-width: 1; stroke-dasharray: none; stroke-linecap: butt; stroke-linejoin: miter; stroke-miterlimit: 10; fill: #172554; fill-rule: nonzero; opacity: 1;" transform=" matrix(1 0 0 1 0 0) " stroke-linecap="round"/>
	<path d="M 46.884 6.536 h -9.578 c -0.552 0 -1 -0.448 -1 -1 s 0.448 -1 1 -1 h 9.578 c 0.553 0 1 0.448 1 1 S 47.437 6.536 46.884 6.536 z" style="stroke: none; stroke-width: 1; stroke-dasharray: none; stroke-linecap: butt; stroke-linejoin: miter; stroke-miterlimit: 10; fill: #172554; fill-rule: nonzero; opacity: 1;" transform=" matrix(1 0 0 1 0 0) " stroke-linecap="round"/>
	<circle cx="51.991" cy="5.541" r="0.911" style="stroke: none; stroke-width: 1; stroke-dasharray: none; stroke-linecap: butt; stroke-linejoin: miter; stroke-miterlimit: 10; fill: #172554; fill-rule: nonzero; opacity: 1;" transform="  matrix(1 0 0 1 0 0) "/>
</g>
</svg>