<svg xmlns="http://www.w3.org/2000/svg" shape-rendering="geometricPrecision" text-rendering="geometricPrecision" image-rendering="optimizeQuality" fill-rule="evenodd" clip-rule="evenodd" viewBox="0 0 513 387.494"><path stroke="#172554" stroke-miterlimit="22.926" fill="#172554" d="M426.598 63.797V30.994c0-9.998-8.211-18.246-18.247-18.246H30.996c-10.037 0-18.247 8.21-18.247 18.246v32.803h413.849zM138.055 314.175a7.663 7.663 0 010-15.326h116.353a7.663 7.663 0 010 15.326H138.055zm222.817-60.668c11.435 0 21.582 5.515 27.927 14.032 6.346-8.517 16.491-14.032 27.928-14.032 19.223 0 34.807 15.585 34.807 34.809 0 19.223-15.584 34.807-34.807 34.807-11.437 0-21.582-5.515-27.928-14.03-6.345 8.515-16.492 14.03-27.927 14.03-19.224 0-34.808-15.584-34.808-34.807 0-19.224 15.584-34.809 34.808-34.809zm-212.197-99.17h58.428c7.451 0 13.547 6.096 13.547 13.547v2.96h-85.523v-2.96c0-7.451 6.097-13.547 13.548-13.547zm71.975 21.168v28.883h-26.531v-28.883h26.531zm-31.192 28.883H166.29v-28.883h23.168v28.883zm-27.83 0h-26.501v-28.883h26.501v28.883zm59.022 4.662v3.005c0 7.451-6.097 13.548-13.547 13.548h-58.428c-7.45 0-13.548-6.096-13.548-13.548v-3.005h85.523zm-82.595 68.734a7.663 7.663 0 010-15.325h154.304a7.663 7.663 0 110 15.325H138.055zM12.749 141.627v124.909c0 10.036 8.248 18.247 18.247 18.247h43.163V141.627h-61.41zm426.097-51.164h43.16c8.366 0 15.973 3.436 21.49 8.952l.048.048c5.524 5.527 8.956 13.145 8.956 21.494V356.5c0 8.325-3.438 15.938-8.962 21.484l-.076.075c-5.543 5.508-13.144 8.935-21.456 8.935H104.654c-8.35 0-15.968-3.432-21.495-8.956l-.047-.048c-5.516-5.517-8.953-13.124-8.953-21.49v-59.469H30.996c-8.348 0-15.969-3.433-21.496-8.957l-.048-.048C3.936 282.509.5 274.902.5 266.536V30.995c0-8.399 3.429-16.028 8.948-21.547.287-.286.583-.554.89-.807C15.798 3.594 23.066.5 30.996.5h377.355c8.366 0 15.973 3.436 21.49 8.952l.024.024.024-.024c5.526 5.527 8.957 13.161 8.957 21.543v59.468zm-334.192 12.248h377.352c10.036 0 18.246 8.249 18.246 18.247v235.541c0 9.998-8.248 18.247-18.246 18.247H104.654c-9.998 0-18.246-8.211-18.246-18.247V120.958c0-10.036 8.21-18.247 18.246-18.247z"/></svg>