<?xml version="1.0" encoding="UTF-8"?>
<svg width="365px" height="369px" viewBox="0 0 365 369" version="1.1" xmlns="http://www.w3.org/2000/svg" xmlns:xlink="http://www.w3.org/1999/xlink">
    <title>Universal_(23)</title>
    <g id="Universal_(23)" stroke="none" stroke-width="1" fill="none" fill-rule="evenodd">
        <path d="M316.677,11.88 L47.334,11.88 C37.492,11.88 28.539,15.911 22.045,22.405 C15.551,28.899 11.52,37.851 11.52,47.694 L11.52,321.666 C11.52,331.508 15.551,340.462 22.045,346.955 C28.539,353.449 37.492,357.48 47.334,357.48 L316.677,357.48 C326.52,357.48 335.472,353.449 341.966,346.955 C348.459,340.462 352.49,331.508 352.49,321.666 L352.49,47.694 C352.49,37.851 348.459,28.899 341.966,22.405 C335.472,15.911 326.52,11.88 316.677,11.88 Z M47.334,0.36 L316.677,0.36 C329.699,0.36 341.534,5.684 350.11,14.26 C358.687,22.836 364.011,34.671 364.011,47.694 L364.011,321.666 C364.011,334.688 358.687,346.524 350.11,355.1 C341.534,363.676 329.699,369 316.677,369 L47.334,369 C34.312,369 22.476,363.676 13.9,355.1 C5.324,346.524 0,334.688 0,321.666 L0,47.694 C0,34.671 5.324,22.836 13.9,14.26 C22.476,5.683 34.312,0.36 47.334,0.36 L47.334,0.36 Z" id="Fill-1" fill="#172554"></path>
        <path d="M46.497,47.823 C50.886,47.823 54.466,44.243 54.466,39.854 C54.466,35.465 50.886,31.885 46.497,31.885 C42.107,31.885 38.527,35.465 38.527,39.854 C38.527,44.243 42.107,47.823 46.497,47.823" id="Fill-2" fill="#172554"></path>
        <path d="M48.059,38.292 C47.66,37.892 47.107,37.645 46.497,37.645 C45.886,37.645 45.333,37.892 44.934,38.292 C44.535,38.691 44.287,39.244 44.287,39.854 C44.287,40.464 44.535,41.018 44.934,41.417 C45.333,41.816 45.886,42.063 46.497,42.063 C47.107,42.063 47.66,41.816 48.059,41.417 C48.458,41.018 48.706,40.464 48.706,39.854 C48.706,39.244 48.458,38.691 48.059,38.292 Z M46.497,26.125 C50.287,26.125 53.719,27.663 56.204,30.147 C58.688,32.631 60.226,36.064 60.226,39.854 C60.226,43.645 58.688,47.077 56.204,49.562 C53.719,52.046 50.287,53.583 46.497,53.583 C42.706,53.583 39.274,52.046 36.789,49.562 C34.305,47.077 32.767,43.645 32.767,39.854 C32.767,36.064 34.305,32.631 36.789,30.147 C39.274,27.663 42.706,26.125 46.497,26.125 L46.497,26.125 Z" id="Fill-3" fill="#172554"></path>
        <path d="M84.99,47.823 C89.379,47.823 92.959,44.243 92.959,39.854 C92.959,35.465 89.379,31.885 84.99,31.885 C80.601,31.885 77.02,35.465 77.02,39.854 C77.02,44.243 80.601,47.823 84.99,47.823" id="Fill-4" fill="#172554"></path>
        <path d="M86.552,38.292 C86.153,37.892 85.6,37.645 84.99,37.645 C84.379,37.645 83.826,37.892 83.427,38.292 C83.028,38.691 82.78,39.244 82.78,39.854 C82.78,40.464 83.028,41.018 83.427,41.417 C83.826,41.816 84.379,42.063 84.99,42.063 C85.6,42.063 86.153,41.816 86.552,41.417 C86.951,41.018 87.199,40.464 87.199,39.854 C87.199,39.244 86.952,38.691 86.552,38.292 Z M84.99,26.125 C88.78,26.125 92.212,27.663 94.697,30.147 C97.182,32.631 98.719,36.064 98.719,39.854 C98.719,43.645 97.182,47.077 94.697,49.562 C92.212,52.046 88.78,53.583 84.99,53.583 C81.199,53.583 77.767,52.046 75.282,49.562 C72.798,47.077 71.26,43.645 71.26,39.854 C71.26,36.064 72.798,32.631 75.282,30.147 C77.767,27.663 81.2,26.125 84.99,26.125 L84.99,26.125 Z" id="Fill-5" fill="#172554"></path>
        <path d="M123.483,47.823 C127.872,47.823 131.452,44.243 131.452,39.854 C131.452,35.465 127.872,31.885 123.483,31.885 C119.094,31.885 115.514,35.465 115.514,39.854 C115.514,44.243 119.094,47.823 123.483,47.823" id="Fill-6" fill="#172554"></path>
        <path d="M125.045,38.292 C124.646,37.892 124.093,37.645 123.483,37.645 C122.872,37.645 122.319,37.892 121.92,38.292 C121.521,38.691 121.273,39.244 121.273,39.854 C121.273,40.464 121.521,41.018 121.92,41.417 C122.319,41.816 122.872,42.063 123.483,42.063 C124.093,42.063 124.646,41.816 125.045,41.417 C125.444,41.018 125.692,40.464 125.692,39.854 C125.692,39.244 125.445,38.691 125.045,38.292 Z M123.483,26.125 C127.273,26.125 130.706,27.663 133.19,30.147 C135.675,32.631 137.212,36.064 137.212,39.854 C137.212,43.645 135.675,47.077 133.19,49.562 C130.706,52.046 127.273,53.583 123.483,53.583 C119.692,53.583 116.26,52.046 113.775,49.562 C111.291,47.077 109.753,43.645 109.753,39.854 C109.753,36.064 111.291,32.631 113.775,30.147 C116.26,27.663 119.692,26.125 123.483,26.125 L123.483,26.125 Z" id="Fill-7" fill="#172554"></path>
        <path d="M5.76,79.349 C2.579,79.349 0,76.77 0,73.589 C0,70.408 2.579,67.829 5.76,67.829 L358.25,67.829 C361.432,67.829 364.011,70.408 364.011,73.589 C364.011,76.77 361.432,79.349 358.25,79.349 L5.76,79.349" id="Fill-8" fill="#172554"></path>
        <path d="M118.894,176.648 L158.363,176.648 L158.363,137.179 L118.894,137.179 L118.894,176.648 Z M164.123,188.169 L113.134,188.169 C109.953,188.169 107.374,185.589 107.374,182.408 L107.374,131.419 C107.374,128.238 109.953,125.659 113.134,125.659 L164.123,125.659 C167.304,125.659 169.883,128.238 169.883,131.419 L169.883,182.408 C169.883,185.589 167.304,188.169 164.123,188.169 L164.123,188.169 Z" id="Fill-9" fill="#172554"></path>
        <path d="M201.206,125.525 L331.722,125.525 C334.902,125.525 337.481,128.103 337.481,131.284 L337.481,261.8 C337.481,264.981 334.902,267.56 331.722,267.56 L201.206,267.56 C198.024,267.56 195.445,264.981 195.445,261.8 L195.445,131.284 C195.445,128.103 198.024,125.525 201.206,125.525 Z M206.966,256.04 L325.962,256.04 L325.962,137.045 L206.966,137.045 L206.966,256.04 Z" id="Fill-10" fill="#172554"></path>
        <path d="M38.396,256.061 L158.186,256.061 L158.186,218.029 L38.396,218.029 L38.396,256.061 Z M163.945,267.582 L32.637,267.582 C29.456,267.582 26.877,265.003 26.877,261.822 L26.877,212.268 C26.877,209.088 29.456,206.508 32.637,206.508 L163.945,206.508 C167.126,206.508 169.706,209.088 169.706,212.268 L169.706,261.822 C169.706,265.003 167.126,267.582 163.945,267.582 L163.945,267.582 Z" id="Fill-11" fill="#172554"></path>
        <path d="M38.049,176.648 L77.518,176.648 L77.518,137.179 L38.049,137.179 L38.049,176.648 Z M83.278,188.169 L32.289,188.169 C29.108,188.169 26.529,185.589 26.529,182.408 L26.529,131.419 C26.529,128.238 29.108,125.659 32.289,125.659 L83.278,125.659 C86.46,125.659 89.039,128.238 89.039,131.419 L89.039,182.408 C89.039,185.589 86.46,188.169 83.278,188.169 L83.278,188.169 Z" id="Fill-12" fill="#172554"></path>
        <path d="M330.771,299.784 C333.952,299.784 336.531,302.363 336.531,305.544 C336.531,308.724 333.952,311.303 330.771,311.303 L33.239,311.303 C30.058,311.303 27.48,308.724 27.48,305.544 C27.48,302.363 30.058,299.784 33.239,299.784 L330.771,299.784" id="Fill-13" fill="#172554"></path>
    </g>
</svg>